<?xml version="1.0" standalone="no"?>
<!DOCTYPE svg PUBLIC "-//W3C//DTD SVG 20010904//EN"
 "http://www.w3.org/TR/2001/REC-SVG-20010904/DTD/svg10.dtd">
<svg version="1.0" xmlns="http://www.w3.org/2000/svg"
 width="1043.000000pt" height="1015.000000pt" viewBox="0 0 1043.000000 1015.000000"
 preserveAspectRatio="xMidYMid meet">

<g transform="translate(0.000000,1015.000000) scale(0.100000,-0.100000)"
fill="#000000" stroke="none">
<path d="M2121 8609 c-13 -10 -19 -19 -15 -19 13 1 48 29 43 34 -2 2 -15 -4
-28 -15z"/>
<path d="M1968 8502 c-16 -10 -28 -21 -28 -25 0 -5 14 1 30 13 17 12 30 23 30
26 0 5 0 5 -32 -14z"/>
<path d="M1858 8434 c-4 -4 -5 -11 -2 -15 6 -11 2515 -10 2719 0 77 4 -492 8
-1265 9 -773 1 -1414 5 -1425 8 -11 3 -24 2 -27 -2z"/>
<path d="M4883 8423 c53 -2 141 -2 195 0 53 1 9 3 -98 3 -107 0 -151 -2 -97
-3z"/>
<path d="M5218 8423 c17 -2 47 -2 65 0 17 2 3 4 -33 4 -36 0 -50 -2 -32 -4z"/>
<path d="M1605 8148 c11 -6 76 -42 145 -81 69 -38 145 -82 169 -99 24 -16 46
-26 49 -23 7 7 9 6 -104 73 -129 77 -252 142 -267 142 -7 0 -3 -6 8 -12z"/>
<path d="M1380 7955 c-7 -9 -11 -17 -9 -20 3 -2 10 5 17 15 14 24 10 26 -8 5z"/>
<path d="M2030 7900 c0 -5 5 -10 11 -10 5 0 7 5 4 10 -3 6 -8 10 -11 10 -2 0
-4 -4 -4 -10z"/>
<path d="M2089 7863 c19 -15 69 -53 112 -83 191 -136 261 -196 462 -395 60
-60 101 -96 89 -79 -32 47 -273 276 -375 357 -103 82 -246 185 -292 212 -29
16 -28 15 4 -12z"/>
<path d="M1295 7839 c-4 -6 -5 -12 -2 -15 2 -3 7 2 10 11 7 17 1 20 -8 4z"/>
<path d="M1266 7805 c-9 -26 -7 -32 5 -12 6 10 9 21 6 23 -2 3 -7 -2 -11 -11z"/>
<path d="M1155 7630 c-3 -5 -1 -10 4 -10 6 0 11 5 11 10 0 6 -2 10 -4 10 -3 0
-8 -4 -11 -10z"/>
<path d="M1952 7520 c0 -14 2 -19 5 -12 2 6 2 18 0 25 -3 6 -5 1 -5 -13z"/>
<path d="M1077 7503 c-4 -3 -7 -11 -7 -17 0 -6 5 -5 12 2 6 6 9 14 7 17 -3 3
-9 2 -12 -2z"/>
<path d="M1046 7453 c-3 -10 -9 -25 -12 -33 -3 -8 4 -4 15 9 22 25 27 41 12
41 -5 0 -11 -8 -15 -17z"/>
<path d="M1950 7388 c0 -46 4 -121 9 -168 5 -47 12 -114 16 -149 14 -151 72
-455 117 -616 31 -112 38 -136 64 -213 13 -40 24 -77 24 -83 0 -5 9 -29 20
-51 11 -23 20 -46 20 -51 0 -5 6 -23 14 -40 8 -18 33 -77 56 -131 128 -306
362 -701 504 -850 36 -39 68 -67 72 -64 3 4 -12 33 -34 65 -180 268 -373 630
-491 925 -169 420 -297 923 -362 1416 -6 50 -16 92 -20 92 -5 0 -9 -37 -9 -82z"/>
<path d="M1010 7389 c0 -5 5 -7 10 -4 6 3 10 8 10 11 0 2 -4 4 -10 4 -5 0 -10
-5 -10 -11z"/>
<path d="M970 7315 c-7 -14 -11 -28 -8 -31 3 -3 13 9 21 25 18 37 6 42 -13 6z"/>
<path d="M944 7258 c-17 -23 -85 -169 -169 -363 -18 -40 -45 -126 -45 -139 1
-10 18 29 52 114 12 29 25 60 66 150 16 36 39 88 51 115 13 28 27 58 32 68 14
26 29 67 25 67 -2 0 -8 -6 -12 -12z"/>
<path d="M2801 7240 c27 -41 49 -65 49 -53 0 4 -16 26 -36 48 -35 39 -35 39
-13 5z"/>
<path d="M2920 7095 c0 -5 10 -21 21 -35 13 -17 17 -18 10 -5 -17 33 -31 51
-31 40z"/>
<path d="M2986 6990 c15 -22 29 -40 31 -40 2 0 -6 18 -18 40 -13 22 -26 40
-31 40 -5 0 4 -18 18 -40z"/>
<path d="M711 6729 c-1 -14 -21 -70 -51 -144 -29 -69 -61 -176 -100 -335 -5
-19 -20 -79 -34 -132 -34 -134 -92 -497 -112 -708 -25 -254 -26 -774 -1 -965
56 -430 158 -839 298 -1189 199 -497 477 -936 864 -1361 80 -88 321 -325 331
-325 6 0 55 48 109 108 315 344 523 565 536 570 19 7 8 -27 -22 -68 -48 -66
-268 -317 -415 -475 -236 -252 -597 -599 -754 -725 -30 -24 -80 -67 -110 -94
-30 -27 -76 -65 -102 -84 -27 -18 -48 -37 -48 -40 0 -4 308 -6 684 -4 l683 2
7 88 c4 48 18 184 32 302 13 118 45 406 69 640 24 234 60 560 79 725 19 165
53 471 76 680 23 209 52 479 66 600 14 121 31 279 39 350 24 215 64 577 70
625 2 25 18 185 35 355 16 171 35 355 41 410 6 55 13 118 15 140 2 22 12 117
22 212 10 94 15 180 11 190 -5 12 -8 4 -8 -24 -1 -23 -5 -75 -10 -115 -6 -40
-15 -125 -21 -188 -6 -63 -15 -142 -20 -175 -6 -33 -12 -85 -15 -115 -12 -125
-47 -409 -56 -455 -19 -94 -27 -160 -28 -221 -1 -33 -4 -63 -7 -67 -3 -3 -7
-27 -9 -54 -2 -26 -11 -104 -19 -173 -9 -69 -21 -179 -27 -245 -5 -66 -14
-151 -20 -190 -5 -38 -14 -116 -21 -172 -6 -57 -14 -103 -18 -103 -7 0 -3 76
11 190 15 125 30 314 25 333 -2 9 0 17 5 17 5 0 9 8 9 18 0 13 -2 14 -9 4 -6
-11 -9 -9 -14 7 -3 11 1 26 10 32 9 8 12 21 8 37 -4 16 -1 28 7 33 10 7 10 9
1 9 -7 0 -13 7 -13 15 0 8 -9 15 -19 15 -11 0 -22 6 -24 13 -4 10 -6 10 -6 0
-1 -7 -6 -13 -12 -13 -5 0 -7 5 -4 10 3 6 1 10 -4 10 -6 0 -11 17 -11 37 0 20
-7 44 -16 54 -14 16 -14 18 5 24 16 5 21 15 21 41 0 31 8 39 33 35 4 0 6 18 6
41 -1 40 -2 41 -9 13 l-8 -30 -1 28 c-1 17 -7 27 -16 27 -10 0 -15 10 -16 28
0 15 -3 21 -6 15 -2 -7 -20 -13 -39 -13 -30 0 -34 3 -34 25 0 18 -5 25 -19 25
-11 0 -23 9 -26 20 -7 22 -35 28 -35 7 0 -8 -14 -13 -40 -14 -26 -1 -40 4 -40
12 0 9 25 15 80 20 44 4 80 12 80 17 0 11 169 6 187 -5 6 -4 16 0 23 8 7 8 11
15 9 16 -2 0 -526 3 -1164 5 -638 3 -1182 6 -1210 7 l-50 2 2 155 c2 169 17
392 35 510 19 126 67 401 84 480 8 41 18 92 21 113 3 20 9 40 14 43 5 3 9 20
9 38 0 17 4 36 8 42 5 5 14 29 21 54 7 25 29 92 48 150 42 124 55 179 49 194
-2 6 -5 4 -5 -5z m1699 -1829 c0 -5 -5 -10 -11 -10 -5 0 -7 5 -4 10 3 6 8 10
11 10 2 0 4 -4 4 -10z m67 -142 c-3 -8 -6 -5 -6 6 -1 11 2 17 5 13 3 -3 4 -12
1 -19z m53 0 c0 -19 -2 -20 -10 -8 -13 19 -13 30 0 30 6 0 10 -10 10 -22z
m130 -12 c0 -19 -3 -41 -6 -50 -12 -32 -24 -15 -24 34 0 38 4 50 15 50 10 0
15 -10 15 -34z m20 -86 c0 -5 -2 -10 -4 -10 -3 0 -8 5 -11 10 -3 6 -1 10 4 10
6 0 11 -4 11 -10z m-30 -185 c10 -12 10 -15 -4 -15 -9 0 -16 7 -16 15 0 8 2
15 4 15 2 0 9 -7 16 -15z m-100 -85 c0 -5 -5 -10 -11 -10 -5 0 -7 5 -4 10 3 6
8 10 11 10 2 0 4 -4 4 -10z m140 -50 c0 -22 -4 -40 -10 -40 -5 0 -10 18 -10
40 0 22 5 40 10 40 6 0 10 -18 10 -40z m40 -74 c0 -19 -5 -38 -11 -42 -6 -3
-9 -14 -6 -24 3 -10 2 -31 -2 -47 -6 -26 -8 -28 -46 -22 -38 6 -38 6 -7 8 31
1 32 3 32 41 0 22 5 40 10 40 6 0 10 18 10 40 0 22 5 40 10 40 6 0 10 -15 10
-34z m-20 -176 c0 -5 -4 -10 -10 -10 -5 0 -10 5 -10 10 0 6 5 10 10 10 6 0 10
-4 10 -10z m-5 -100 c3 -5 -1 -10 -9 -10 -9 0 -16 5 -16 10 0 6 4 10 9 10 6 0
13 -4 16 -10z m22 -212 c-3 -7 -5 -2 -5 12 0 14 2 19 5 13 2 -7 2 -19 0 -25z
m14 -81 c-13 -13 -15 21 -3 50 6 15 8 13 10 -11 2 -16 -1 -33 -7 -39z m-7
-116 c-3 -39 -11 -71 -16 -71 -5 0 -7 12 -4 28 2 15 8 49 11 75 10 74 17 48 9
-32z m-17 -148 c-3 -10 -5 -2 -5 17 0 19 2 27 5 18 2 -10 2 -26 0 -35z m-26
-213 c-12 -90 -24 -166 -27 -169 -4 -3 -3 23 0 59 4 36 8 104 9 152 1 49 5 88
8 88 4 0 10 12 14 28 17 62 15 -5 -4 -158z m-54 -502 c-3 -8 -6 -5 -6 6 -1 11
2 17 5 13 3 -3 4 -12 1 -19z"/>
<path d="M5260 6547 c0 -18 -75 -718 -135 -1267 -24 -223 -49 -450 -55 -505
-6 -55 -21 -202 -35 -326 -31 -277 -31 -292 -7 -285 9 3 67 19 127 36 349 100
647 284 829 512 79 98 159 253 187 363 30 114 37 330 15 448 -64 338 -299 667
-634 888 -93 62 -213 125 -270 143 -16 5 -22 3 -22 -7z"/>
<path d="M3043 6215 c0 -27 2 -38 4 -22 2 15 2 37 0 50 -2 12 -4 0 -4 -28z"/>
<path d="M541 5484 c0 -11 3 -14 6 -6 3 7 2 16 -1 19 -3 4 -6 -2 -5 -13z"/>
<path d="M450 5068 c0 -7 5 -20 10 -28 8 -12 10 -9 10 13 0 15 -4 27 -10 27
-5 0 -10 -6 -10 -12z"/>
<path d="M9178 4953 l-676 -3 -10 -33 c-5 -17 -17 -59 -27 -92 -40 -146 -74
-246 -96 -287 -5 -10 -9 -22 -9 -26 0 -5 -28 -60 -61 -123 -265 -494 -721
-899 -1309 -1163 -150 -67 -265 -110 -435 -160 -385 -114 -699 -153 -1312
-163 l-382 -6 -6 -41 c-3 -23 -9 -86 -15 -141 -5 -55 -14 -144 -20 -197 -5
-54 -14 -140 -20 -190 -5 -51 -30 -288 -55 -527 -25 -239 -56 -529 -69 -645
-13 -116 -21 -215 -16 -220 20 -21 400 -86 615 -105 451 -40 987 -6 1425 90
222 49 543 148 702 217 246 106 564 283 782 434 377 261 709 589 968 958 216
308 425 742 534 1110 109 367 159 671 184 1109 10 164 8 214 -8 209 -4 -2
-312 -4 -684 -5z"/>
<path d="M2808 4860 c2 -16 9 -30 14 -30 13 0 6 53 -8 57 -7 2 -9 -8 -6 -27z"/>
<path d="M2792 4744 c1 -9 9 -19 16 -22 9 -3 13 2 10 14 -1 9 -9 19 -16 22 -9
3 -13 -2 -10 -14z"/>
<path d="M2781 4663 c-1 -24 -5 -43 -11 -43 -12 0 -13 -37 -1 -44 12 -8 21 18
21 60 0 19 5 34 10 34 6 0 10 5 10 11 0 5 -4 8 -9 5 -5 -4 -12 0 -14 6 -3 7
-6 -6 -6 -29z"/>
<path d="M2820 4643 c0 -10 4 -24 8 -31 6 -8 9 -2 9 18 0 16 -4 30 -9 30 -4 0
-8 -8 -8 -17z"/>
<path d="M2801 4604 c0 -11 3 -14 6 -6 3 7 2 16 -1 19 -3 4 -6 -2 -5 -13z"/>
<path d="M2811 4540 c0 -33 1 -34 10 -11 6 16 6 28 -1 35 -7 7 -10 -1 -9 -24z"/>
<path d="M465 795 c-24 -24 -25 -27 -25 -185 0 -158 1 -161 25 -185 24 -25 27
-25 195 -25 168 0 171 0 195 25 24 24 25 27 25 185 0 158 -1 161 -25 185 -24
25 -27 25 -195 25 -168 0 -171 0 -195 -25z m237 -82 c24 -29 78 -171 75 -195
-3 -16 -12 -24 -31 -26 -23 -3 -29 3 -50 50 -13 29 -26 61 -29 71 -4 9 -12 17
-18 17 -7 0 -10 -3 -6 -6 3 -4 -1 -20 -9 -36 -9 -17 -11 -27 -5 -24 6 4 11 2
11 -3 0 -6 3 -10 8 -10 21 4 32 -3 32 -20 0 -30 -25 -42 -76 -39 -68 4 -74 20
-39 107 43 107 60 131 93 131 16 0 36 -8 44 -17z"/>
<path d="M2088 413 c7 -3 16 -2 19 1 4 3 -2 6 -13 5 -11 0 -14 -3 -6 -6z"/>
<path d="M4373 397 c-2 -4 -13 -5 -24 -2 -11 4 -19 2 -19 -4 0 -6 -16 -11 -35
-11 -19 0 -35 -4 -35 -10 0 -5 -7 -10 -15 -10 -8 0 -15 7 -15 15 0 11 -7 14
-24 9 -14 -3 -32 -2 -42 4 -11 6 -25 5 -44 -5 -36 -17 -201 -27 -211 -12 -4 7
-19 5 -45 -9 -30 -15 -66 -21 -156 -24 -65 -2 -118 -1 -118 4 0 4 -5 8 -12 8
-9 0 -9 -3 0 -12 7 -7 12 -19 12 -28 -1 -12 -3 -11 -11 3 -8 14 -18 17 -37 12
-15 -4 -28 -1 -32 6 -6 8 -14 5 -28 -9 -13 -13 -33 -20 -52 -20 -17 1 -42 -5
-55 -12 -21 -11 -27 -11 -43 4 -22 19 -49 12 -58 -16 -4 -15 -9 -17 -17 -9
-16 16 -42 14 -57 -4 -12 -14 -15 -14 -30 0 -9 8 -23 15 -30 15 -7 0 -23 8
-34 18 -16 13 -18 13 -8 1 6 -9 8 -20 4 -24 -4 -5 -2 -5 4 -2 14 8 27 -20 14
-28 -6 -4 -10 -1 -10 4 0 6 -7 11 -15 11 -9 0 -15 -6 -13 -13 2 -7 -1 -13 -7
-14 -5 0 -9 3 -8 8 2 4 -5 5 -14 2 -12 -5 -14 -3 -8 8 5 8 -2 5 -14 -6 -12
-11 -22 -15 -21 -10 8 39 -18 47 -51 16 -12 -11 -29 -17 -40 -14 -10 3 -27 2
-36 -3 -33 -15 -93 -12 -93 4 0 9 -7 13 -19 9 -11 -3 -29 5 -44 19 -14 12 -27
21 -29 19 -2 -3 -18 8 -35 23 -29 27 -53 31 -53 10 0 -6 7 -8 15 -4 13 5 14 2
4 -15 -6 -11 -8 -23 -5 -27 3 -3 6 -1 6 4 0 13 48 10 61 -3 21 -21 1 -32 -38
-21 -25 7 -38 7 -41 0 -2 -6 -16 -7 -36 -2 -25 5 -38 3 -55 -11 -26 -21 -56
-26 -45 -7 4 6 3 8 -4 5 -5 -4 -8 -16 -5 -26 4 -16 1 -19 -15 -14 -25 6 -85
-24 -79 -40 3 -7 10 -11 16 -9 8 1 9 -2 5 -10 -5 -7 -7 -26 -6 -43 l1 -30 -9
29 c-5 16 -6 34 -3 40 7 12 -38 -24 -49 -39 -4 -5 -13 -10 -20 -10 -7 0 -13
-4 -13 -10 0 -5 3 -9 8 -7 4 1 7 -2 7 -8 0 -6 11 -5 27 3 21 9 27 9 31 -1 2
-7 9 -9 14 -6 7 5 8 2 3 -5 -5 -9 -10 -10 -18 -2 -13 13 -30 15 -23 2 3 -5 0
-9 -7 -8 -6 0 -23 -1 -36 -1 l-25 -2 22 -20 c21 -20 35 -20 1992 -20 l1970 0
0 30 c0 20 -5 30 -15 30 -9 0 -15 9 -15 23 -1 28 -22 57 -43 57 -10 0 -14 6
-11 14 4 9 -6 16 -30 20 -19 4 -57 22 -84 40 -27 18 -57 31 -67 30 -10 -2 -31
4 -47 12 -15 8 -28 12 -28 10 0 -3 -15 0 -32 6 -18 5 -52 9 -75 9 -29 -1 -48
5 -60 18 -18 19 -34 22 -188 40 -91 10 -135 20 -135 30 0 4 -71 8 -157 9 -89
2 -159 7 -161 12 -2 6 -10 10 -18 10 -10 0 -12 -5 -8 -12 5 -9 2 -8 -9 1 -14
11 -83 14 -358 15 -188 1 -343 -3 -346 -7z m-1648 -167 c3 -5 1 -10 -4 -10 -6
0 -11 5 -11 10 0 6 2 10 4 10 3 0 8 -4 11 -10z m-119 -15 c4 -8 11 -12 18 -8
6 3 6 1 -1 -8 -7 -7 -13 -21 -13 -31 0 -20 -8 -22 -28 -9 -10 6 -10 10 2 20
19 16 10 39 -17 44 -18 3 -16 5 6 6 16 0 30 -5 33 -14z m404 1 c0 -3 -4 -8
-10 -11 -5 -3 -10 -1 -10 4 0 6 5 11 10 11 6 0 10 -2 10 -4z m-436 -18 c-3 -4
-9 -8 -15 -8 -5 0 -9 4 -9 8 0 5 7 9 15 9 8 0 12 -4 9 -9z m-71 -30 c-6 -7 -9
-20 -8 -29 2 -9 -3 -16 -11 -16 -10 0 -11 4 -3 14 6 7 8 13 4 13 -4 0 -2 7 5
15 15 18 27 20 13 3z m18 -21 c-10 -9 -11 -8 -5 6 3 10 9 15 12 12 3 -3 0 -11
-7 -18z m-86 3 c3 -5 -1 -10 -10 -10 -9 0 -13 5 -10 10 3 6 8 10 10 10 2 0 7
-4 10 -10z"/>
<path d="M2535 390 c-3 -5 -1 -10 4 -10 6 0 11 5 11 10 0 6 -2 10 -4 10 -3 0
-8 -4 -11 -10z"/>
<path d="M2205 380 c-3 -5 3 -10 14 -10 12 0 21 5 21 10 0 6 -6 10 -14 10 -8
0 -18 -4 -21 -10z"/>
<path d="M2368 373 c7 -3 16 -2 19 1 4 3 -2 6 -13 5 -11 0 -14 -3 -6 -6z"/>
<path d="M3190 350 c0 -5 5 -10 10 -10 6 0 10 5 10 10 0 6 -4 10 -10 10 -5 0
-10 -4 -10 -10z"/>
<path d="M2395 340 c-3 -5 -2 -10 4 -10 5 0 13 5 16 10 3 6 2 10 -4 10 -5 0
-13 -4 -16 -10z"/>
<path d="M3070 340 c0 -5 7 -10 15 -10 8 0 15 5 15 10 0 6 -7 10 -15 10 -8 0
-15 -4 -15 -10z"/>
<path d="M2420 310 c-21 -17 -23 -21 -10 -30 11 -7 17 -4 25 13 5 12 14 25 20
29 6 5 6 8 0 8 -5 0 -21 -9 -35 -20z"/>
<path d="M2485 280 c2 -8 4 -17 5 -20 1 -3 2 -9 1 -13 -1 -5 3 -6 9 -2 8 5 7
11 -1 21 -9 11 -7 14 10 14 12 0 20 4 16 9 -9 16 -43 8 -40 -9z"/>
<path d="M2460 271 c0 -6 4 -13 10 -16 6 -3 7 1 4 9 -7 18 -14 21 -14 7z"/>
<path d="M2301 229 c5 -11 15 -17 20 -13 14 9 6 27 -14 30 -14 2 -15 -1 -6
-17z"/>
<path d="M2353 220 c-13 -5 -23 -11 -23 -14 0 -7 40 6 46 15 6 10 6 10 -23 -1z"/>
<path d="M2240 206 c6 -8 18 -12 27 -9 12 5 12 7 1 14 -7 5 -19 9 -27 9 -11 0
-11 -3 -1 -14z"/>
<path d="M2293 172 c-14 -2 -23 -10 -23 -20 0 -13 2 -14 9 -4 11 19 15 19 34
4 13 -11 15 -11 13 2 -3 20 -7 22 -33 18z"/>
<path d="M2226 143 c-6 -14 -5 -15 5 -6 7 7 10 15 7 18 -3 3 -9 -2 -12 -12z"/>
<path d="M2040 125 c0 -8 5 -15 10 -15 6 0 10 7 10 15 0 8 -4 15 -10 15 -5 0
-10 -7 -10 -15z"/>
<path d="M2127 43 c-15 -15 -5 -29 22 -31 39 -3 49 15 16 28 -31 12 -30 12
-38 3z"/>
<path d="M2213 26 c3 -8 1 -17 -6 -20 -7 -2 -4 -5 6 -5 11 -1 17 6 17 19 0 11
-5 20 -11 20 -6 0 -9 -6 -6 -14z"/>
</g>
</svg>
